{"glyphs":{"0":{"ha":746,"x_min":0,"x_max":679,"o":"m 271 814 l 679 848 l 679 0 l 407 33 l 0 0 l 0 853 l 271 814 m 407 645 l 271 645 l 271 203 l 407 203 l 407 645 z "},"1":{"ha":407,"x_min":0,"x_max":339,"o":"m 339 848 l 339 0 l 68 -34 l 68 712 l 0 780 l 68 814 l 339 848 z "},"2":{"ha":746,"x_min":0,"x_max":678,"o":"m 271 203 l 678 170 l 678 0 l 407 34 l 0 0 l 0 271 l 407 576 l 407 678 l 271 678 l 271 610 l 0 674 l 0 814 l 407 848 l 678 780 l 678 576 l 271 237 l 271 203 z "},"3":{"ha":746,"x_min":0,"x_max":678,"o":"m 271 644 l 0 678 l 0 848 l 407 814 l 678 848 l 678 509 l 610 441 l 678 373 l 678 0 l 407 34 l 0 0 l 0 170 l 407 203 l 407 339 l 237 339 l 203 509 l 407 509 l 407 644 l 271 644 z "},"4":{"ha":746,"x_min":0,"x_max":678,"o":"m 610 305 l 610 -136 l 339 -34 l 339 305 l 237 305 l 0 465 l 0 848 l 271 814 l 271 475 l 339 475 l 339 848 l 610 814 l 610 475 l 678 475 l 678 305 l 610 305 z "},"5":{"ha":746,"x_min":0,"x_max":679,"o":"m 271 373 l 0 373 l 0 853 l 271 814 l 679 848 l 679 677 l 678 678 l 407 644 l 407 645 l 271 645 l 271 543 l 678 509 l 679 0 l 407 33 l 0 0 l 0 170 l 271 203 l 271 203 l 407 203 l 407 339 l 271 373 z "},"6":{"ha":746,"x_min":0,"x_max":679,"o":"m 407 339 l 271 373 l 271 203 l 407 203 l 407 339 m 679 0 l 407 33 l 0 0 l 0 853 l 271 814 l 679 848 l 679 677 l 678 678 l 407 644 l 407 645 l 271 645 l 271 543 l 407 509 l 679 543 l 679 0 z "},"7":{"ha":746,"x_min":0,"x_max":678,"o":"m 509 441 l 543 441 l 610 271 l 475 271 l 475 -136 l 203 -34 l 203 271 l 136 271 l 102 441 l 237 441 l 373 644 l 271 644 l 0 678 l 34 848 l 475 814 l 678 848 l 678 678 l 509 441 z "},"8":{"ha":746,"x_min":0,"x_max":678,"o":"m 0 34 l 0 373 l 68 441 l 0 509 l 0 814 l 407 882 l 678 848 l 678 509 l 610 441 l 678 373 l 678 34 l 271 0 l 0 34 m 271 509 l 407 610 l 407 678 l 271 678 l 271 509 m 407 373 l 271 271 l 271 170 l 407 170 l 407 373 z "},"9":{"ha":746,"x_min":0,"x_max":679,"o":"m 272 514 l 408 480 l 408 650 l 272 650 l 272 514 m 0 853 l 272 820 l 679 853 l 679 0 l 408 39 l 0 5 l 0 176 l 1 175 l 272 209 l 272 208 l 408 208 l 408 311 l 272 345 l 1 311 l 0 853 z "},"\u0000":{"ha":0,"x_min":0,"x_max":0,"o":""}," ":{"ha":407,"x_min":0,"x_max":0,"o":""},"!":{"ha":339,"x_min":0,"x_max":271,"o":"m 237 237 l 237 34 l 34 0 l 34 203 l 237 237 m 0 848 l 271 814 l 271 339 l 136 305 l 0 339 l 0 848 z "},"\"":{"ha":543,"x_min":0,"x_max":475,"o":"m 0 610 l 0 814 l 203 848 l 203 644 l 68 475 l 34 475 l 34 543 l 0 610 m 271 610 l 271 814 l 475 848 l 475 644 l 339 475 l 305 475 l 305 543 l 271 610 z "},"#":{"ha":780,"x_min":0,"x_max":747,"o":"m 407 203 l 339 203 l 339 0 l 68 34 l 68 203 l 0 203 l 34 373 l 68 373 l 68 475 l 0 475 l 34 644 l 68 644 l 68 814 l 339 848 l 339 644 l 407 644 l 407 814 l 678 848 l 678 644 l 747 644 l 712 475 l 678 475 l 678 373 l 747 373 l 712 203 l 678 203 l 678 0 l 407 34 l 407 203 m 339 373 l 407 373 l 407 475 l 339 475 l 339 373 z "},"$":{"ha":746,"x_min":0,"x_max":678,"o":"m 203 755 l 203 848 l 475 848 l 475 763 l 678 780 l 678 610 l 271 576 l 271 543 l 678 373 l 678 62 l 475 92 l 475 0 l 203 0 l 203 85 l 0 68 l 0 237 l 406 271 l 406 306 l 0 475 l 0 780 l 203 755 z "},"%":{"ha":949,"x_min":0,"x_max":882,"o":"m 338 644 l 271 678 l 271 576 l 338 576 l 338 644 m 610 271 l 543 305 l 543 203 l 610 203 l 610 271 m 373 13 l 373 -136 l 102 -34 l 102 34 l 271 345 l 271 407 l 0 373 l 0 848 l 338 814 l 509 835 l 509 983 l 780 882 l 780 814 l 610 517 l 610 441 l 882 475 l 882 0 l 543 34 l 373 13 z "},"&":{"ha":746,"x_min":0,"x_max":678,"o":"m 271 538 l 339 644 l 271 644 l 271 538 m 407 475 l 475 339 l 678 339 l 678 34 l 610 0 l 678 -136 l 475 -136 l 407 0 l 271 0 l 0 46 l 0 373 l 68 441 l 0 509 l 0 780 l 271 848 l 543 814 l 543 678 l 407 475 m 271 305 l 271 170 l 339 170 l 271 305 z "},"'":{"ha":271,"x_min":0,"x_max":203,"o":"m 0 610 l 0 814 l 203 848 l 203 644 l 68 475 l 34 475 l 34 543 l 0 610 z "},"(":{"ha":475,"x_min":0,"x_max":407,"o":"m 271 102 l 407 136 l 407 -34 l 271 -68 l 0 0 l 0 848 l 271 916 l 407 882 l 407 712 l 271 746 l 271 102 z "},")":{"ha":475,"x_min":0,"x_max":407,"o":"m 136 746 l 0 711 l 0 882 l 136 916 l 407 848 l 407 0 l 136 -68 l 0 -34 l 0 136 l 136 102 l 136 746 z "},"*":{"ha":712,"x_min":0,"x_max":637,"o":"m 407 750 l 543 814 l 637 631 l 470 557 l 576 441 l 431 294 l 305 437 l 203 305 l 19 397 l 140 557 l 0 610 l 31 814 l 203 750 l 203 916 l 407 949 l 407 750 z "},"+":{"ha":678,"x_min":0,"x_max":611,"o":"m 170 407 l 0 407 l 34 576 l 170 576 l 170 746 l 441 780 l 441 576 l 611 576 l 576 407 l 441 407 l 441 237 l 170 203 l 170 407 z "},",":{"ha":271,"x_min":0,"x_max":203,"o":"m 0 0 l 0 203 l 203 237 l 203 34 l 68 -136 l 34 -136 l 34 -68 l 0 0 z "},"-":{"ha":678,"x_min":0,"x_max":611,"o":"m 0 407 l 34 576 l 611 576 l 576 407 l 0 407 z "},".":{"ha":271,"x_min":0,"x_max":203,"o":"m 203 237 l 203 34 l 0 0 l 0 203 l 203 237 z "},"/":{"ha":746,"x_min":0,"x_max":678,"o":"m 271 102 l 271 -136 l 0 -34 l 0 34 l 407 780 l 407 983 l 678 882 l 678 814 l 271 102 z "},":":{"ha":271,"x_min":0,"x_max":203,"o":"m 203 237 l 203 34 l 0 0 l 0 203 l 203 237 m 203 576 l 203 373 l 0 339 l 0 543 l 203 576 z "},";":{"ha":271,"x_min":0,"x_max":203,"o":"m 203 576 l 203 373 l 0 339 l 0 543 l 203 576 m 0 0 l 0 203 l 203 237 l 203 34 l 68 -136 l 34 -136 l 34 -68 l 0 0 z "},"<":{"ha":678,"x_min":0,"x_max":610,"o":"m 0 509 l 509 780 l 610 610 l 271 441 l 610 271 l 509 102 l 0 373 l 0 509 z "},"=":{"ha":678,"x_min":0,"x_max":611,"o":"m 0 271 l 34 441 l 611 441 l 576 271 l 0 271 m 0 543 l 34 712 l 611 712 l 576 543 l 0 543 z "},">":{"ha":678,"x_min":0,"x_max":610,"o":"m 610 373 l 102 102 l 0 271 l 339 441 l 0 610 l 102 780 l 610 509 l 610 373 z "},"?":{"ha":746,"x_min":0,"x_max":678,"o":"m 407 237 l 407 34 l 203 0 l 203 203 l 407 237 m 678 610 l 441 407 l 441 339 l 305 305 l 170 339 l 170 407 l 407 610 l 407 667 l 271 678 l 0 644 l 0 814 l 271 848 l 678 814 l 678 610 z "},"@":{"ha":746,"x_min":0,"x_max":678,"o":"m 475 305 l 311 446 l 407 509 l 407 746 l 271 746 l 271 237 l 610 237 l 610 102 l 271 68 l 0 136 l 0 882 l 271 943 l 678 882 l 678 339 l 475 305 z "},"A":{"ha":814,"x_min":0,"x_max":746,"o":"m 475 808 l 271 808 l 271 475 l 475 475 l 475 808 m 746 -136 l 475 -34 l 475 305 l 271 305 l 271 34 l 0 0 l 0 1017 l 271 978 l 746 1012 l 746 -136 z "},"B":{"ha":814,"x_min":0,"x_max":746,"o":"m 271 576 l 475 678 l 475 848 l 271 814 l 271 576 m 475 203 l 475 441 l 271 441 l 271 203 l 475 203 m 271 34 l 0 0 l 0 1017 l 271 978 l 746 1013 l 746 712 l 509 543 l 746 543 l 746 0 l 271 34 z "},"C":{"ha":814,"x_min":0,"x_max":746,"o":"m 474 203 l 746 170 l 746 0 l 474 33 l 0 0 l 0 1017 l 271 978 l 746 1012 l 745 842 l 474 809 l 271 809 l 271 203 l 474 203 l 474 203 z "},"D":{"ha":814,"x_min":0,"x_max":747,"o":"m 271 915 l 475 1017 l 746 949 l 747 102 l 475 0 l 0 0 l 0 983 l 271 1017 l 271 915 m 475 848 l 271 746 l 271 203 l 474 203 l 475 848 z "},"E":{"ha":814,"x_min":0,"x_max":746,"o":"m 271 407 l 271 203 l 474 203 l 746 170 l 746 0 l 474 33 l 0 0 l 0 1017 l 271 978 l 746 1012 l 746 842 l 745 842 l 474 808 l 474 809 l 271 809 l 271 576 l 677 576 l 610 407 l 271 407 z "},"F":{"ha":814,"x_min":0,"x_max":746,"o":"m 271 407 l 271 0 l 0 -203 l 0 1017 l 271 978 l 746 1012 l 746 842 l 745 842 l 474 808 l 474 809 l 271 809 l 271 576 l 677 576 l 610 407 l 271 407 z "},"G":{"ha":814,"x_min":0,"x_max":747,"o":"m 746 -136 l 475 -34 l 475 33 l 0 0 l 0 1017 l 271 978 l 747 1012 l 747 842 l 746 842 l 475 808 l 475 809 l 271 809 l 271 203 l 475 203 l 475 373 l 373 373 l 373 543 l 746 543 l 746 -136 z "},"H":{"ha":814,"x_min":0,"x_max":746,"o":"m 475 978 l 746 1080 l 746 -136 l 475 -34 l 475 441 l 271 441 l 271 34 l 0 0 l 0 1017 l 271 978 l 271 610 l 475 610 l 475 978 z "},"I":{"ha":339,"x_min":0,"x_max":271,"o":"m 271 34 l 0 0 l 0 1017 l 271 978 l 271 34 z "},"J":{"ha":780,"x_min":0,"x_max":712,"o":"m 0 136 l 271 374 l 271 203 l 441 203 l 440 949 l 712 1017 l 712 0 l 441 34 l 0 0 l 0 136 z "},"K":{"ha":814,"x_min":0,"x_max":746,"o":"m 475 983 l 746 1085 l 746 678 l 509 509 l 746 509 l 746 -136 l 475 -34 l 475 373 l 271 373 l 271 34 l 0 0 l 0 1017 l 271 978 l 271 537 l 475 678 l 475 983 z "},"L":{"ha":746,"x_min":0,"x_max":679,"o":"m 407 203 l 678 170 l 679 170 l 679 0 l 407 33 l 0 0 l 0 1017 l 271 978 l 271 203 l 407 203 l 407 203 z "},"M":{"ha":1153,"x_min":0,"x_max":1085,"o":"m 678 814 l 677 0 l 407 33 l 407 779 l 271 814 l 271 33 l 0 0 l 0 1017 l 271 983 l 814 1017 l 1085 882 l 1085 -136 l 814 -35 l 814 779 l 678 814 z "},"N":{"ha":814,"x_min":0,"x_max":746,"o":"m 0 1085 l 475 644 l 475 949 l 746 1017 l 746 -68 l 271 407 l 271 34 l 0 0 l 0 1085 z "},"O":{"ha":814,"x_min":0,"x_max":747,"o":"m 271 983 l 747 1017 l 746 0 l 474 34 l 0 0 l 0 1008 l 271 983 m 475 848 l 271 848 l 271 203 l 474 203 l 475 848 z "},"P":{"ha":814,"x_min":0,"x_max":746,"o":"m 271 407 l 475 543 l 474 848 l 271 814 l 271 407 m 271 203 l 271 34 l 0 0 l 0 1017 l 271 978 l 746 1017 l 746 543 l 271 203 z "},"Q":{"ha":814,"x_min":0,"x_max":746,"o":"m 272 339 l 271 203 l 406 203 l 407 339 l 272 339 m 406 28 l 0 0 l 0 1017 l 271 978 l 746 1012 l 746 0 l 677 8 l 677 -170 l 406 -68 l 406 28 m 475 441 l 474 809 l 271 809 l 272 441 l 475 441 z "},"R":{"ha":814,"x_min":0,"x_max":746,"o":"m 271 441 l 475 576 l 475 842 l 271 808 l 271 441 m 271 305 l 271 34 l 0 0 l 0 1017 l 271 978 l 746 1013 l 746 576 l 509 407 l 746 407 l 746 -136 l 475 -34 l 475 305 l 271 305 z "},"S":{"ha":814,"x_min":0,"x_max":746,"o":"m 746 0 l 475 39 l 0 0 l 0 170 l 474 209 l 475 373 l 0 576 l 0 1017 l 271 983 l 746 1023 l 746 853 l 271 814 l 271 678 l 746 480 l 746 0 z "},"T":{"ha":817,"x_min":0,"x_max":931,"o":"m 0 776 l 233 1008 l 931 1008 l 699 776 l 543 776 l 543 0 l 311 -233 l 311 776 l 0 776 z "},"U":{"ha":814,"x_min":0,"x_max":746,"o":"m 0 779 l 271 1017 l 271 203 l 475 203 l 474 949 l 746 1017 l 746 0 l 475 34 l 0 0 l 0 779 z "},"V":{"ha":814,"x_min":0,"x_max":746,"o":"m 373 0 l 0 237 l 0 1017 l 271 977 l 271 305 l 373 203 l 475 305 l 474 978 l 746 1012 l 746 237 l 373 0 z "},"W":{"ha":1153,"x_min":0,"x_max":1085,"o":"m 543 142 l 339 1 l 0 237 l 0 1017 l 271 977 l 271 305 l 339 203 l 407 305 l 406 978 l 678 1012 l 678 305 l 746 203 l 814 305 l 813 978 l 1085 1012 l 1085 237 l 746 1 l 543 142 z "},"X":{"ha":814,"x_min":0,"x_max":746,"o":"m 372 407 l 271 306 l 271 34 l 0 0 l 0 373 l 170 509 l 0 644 l 0 1017 l 271 977 l 271 712 l 376 609 l 475 712 l 474 978 l 746 1080 l 746 644 l 576 509 l 746 373 l 746 -136 l 475 -34 l 474 306 l 372 407 z "},"Y":{"ha":814,"x_min":0,"x_max":746,"o":"m 237 373 l 0 576 l 0 1023 l 271 983 l 271 644 l 373 543 l 475 644 l 474 983 l 746 1085 l 746 576 l 509 373 l 509 -136 l 237 -34 l 237 373 z "},"Z":{"ha":814,"x_min":0,"x_max":746,"o":"m 305 203 l 474 203 l 745 170 l 746 170 l 746 0 l 474 33 l 0 0 l 0 203 l 475 814 l 272 814 l 272 814 l 1 848 l 0 847 l 0 1017 l 475 978 l 746 1017 l 746 808 l 745 808 l 305 203 z "},"[":{"ha":475,"x_min":0,"x_max":407,"o":"m 271 102 l 407 102 l 407 -68 l 0 -68 l 0 916 l 407 916 l 407 746 l 271 746 l 271 102 z "},"\\":{"ha":746,"x_min":0,"x_max":678,"o":"m 678 34 l 678 -34 l 407 -136 l 407 68 l 0 814 l 0 882 l 271 983 l 271 746 l 678 34 z "},"]":{"ha":475,"x_min":0,"x_max":407,"o":"m 136 746 l 0 745 l 0 916 l 407 916 l 407 -68 l 0 -68 l 0 102 l 136 102 l 136 746 z "},"^":{"ha":610,"x_min":0,"x_max":543,"o":"m 0 949 l 203 1187 l 339 1187 l 543 949 l 339 916 l 271 1017 l 203 916 l 0 949 z "},"_":{"ha":814,"x_min":0,"x_max":746,"o":"m 0 -68 l 746 -68 l 746 -237 l 0 -237 l 0 -68 z "},"`":{"ha":475,"x_min":0,"x_max":407,"o":"m 407 916 l 271 916 l 0 1119 l 271 1119 l 407 916 z "},"a":{"ha":746,"x_min":0,"x_max":678,"o":"m 407 644 l 271 644 l 271 407 l 407 407 l 407 644 m 678 -136 l 407 -34 l 407 237 l 271 237 l 271 34 l 0 0 l 0 853 l 271 814 l 678 848 l 678 -136 z "},"b":{"ha":746,"x_min":0,"x_max":678,"o":"m 271 475 l 407 576 l 407 678 l 271 644 l 271 475 m 407 203 l 407 339 l 271 339 l 271 203 l 407 203 m 271 34 l 0 0 l 0 853 l 271 814 l 678 848 l 678 610 l 441 441 l 678 441 l 678 0 l 271 34 z "},"c":{"ha":746,"x_min":0,"x_max":679,"o":"m 407 203 l 679 170 l 679 0 l 407 33 l 0 0 l 0 853 l 271 814 l 679 848 l 678 678 l 407 644 l 271 645 l 271 203 l 407 203 l 407 203 z "},"d":{"ha":746,"x_min":0,"x_max":680,"o":"m 271 814 l 408 882 l 680 814 l 679 102 l 407 0 l 0 0 l 0 853 l 271 882 l 271 814 m 407 712 l 271 645 l 271 203 l 406 203 l 407 712 z "},"e":{"ha":746,"x_min":0,"x_max":679,"o":"m 271 339 l 271 203 l 407 203 l 679 170 l 679 0 l 407 33 l 0 0 l 0 853 l 271 814 l 679 848 l 679 677 l 678 678 l 407 644 l 407 645 l 271 645 l 271 509 l 610 509 l 543 339 l 271 339 z "},"f":{"ha":746,"x_min":0,"x_max":679,"o":"m 271 339 l 271 34 l 0 0 l 0 853 l 271 814 l 679 848 l 679 677 l 678 678 l 407 644 l 407 645 l 271 645 l 271 509 l 610 509 l 543 339 l 271 339 z "},"g":{"ha":746,"x_min":0,"x_max":679,"o":"m 678 -136 l 407 -34 l 407 33 l 0 0 l 0 853 l 271 814 l 679 848 l 679 677 l 678 678 l 407 644 l 407 645 l 271 645 l 271 203 l 407 203 l 407 305 l 339 305 l 339 475 l 678 475 l 678 -136 z "},"h":{"ha":746,"x_min":0,"x_max":678,"o":"m 407 814 l 678 916 l 678 -136 l 407 -34 l 407 339 l 271 339 l 271 34 l 0 0 l 0 853 l 271 814 l 271 509 l 407 509 l 407 814 z "},"i":{"ha":339,"x_min":0,"x_max":271,"o":"m 271 34 l 0 0 l 0 853 l 271 814 l 271 34 z "},"j":{"ha":746,"x_min":0,"x_max":678,"o":"m 0 136 l 271 374 l 271 203 l 407 203 l 406 780 l 678 848 l 678 0 l 407 34 l 0 0 l 0 136 z "},"k":{"ha":746,"x_min":0,"x_max":678,"o":"m 407 814 l 678 916 l 678 509 l 441 339 l 678 339 l 678 -136 l 407 -34 l 407 237 l 271 237 l 271 34 l 0 0 l 0 853 l 271 814 l 271 373 l 407 475 l 407 814 z "},"l":{"ha":746,"x_min":0,"x_max":679,"o":"m 407 203 l 678 170 l 679 170 l 679 0 l 407 33 l 0 0 l 0 853 l 271 814 l 271 203 l 407 203 l 407 203 z "},"m":{"ha":1017,"x_min":0,"x_max":949,"o":"m 610 644 l 610 0 l 339 33 l 339 610 l 271 644 l 271 33 l 0 0 l 0 848 l 271 814 l 678 848 l 949 780 l 949 -136 l 678 -35 l 678 610 l 610 644 z "},"n":{"ha":746,"x_min":0,"x_max":678,"o":"m 0 916 l 407 508 l 407 814 l 678 916 l 678 -68 l 271 372 l 271 34 l 0 0 l 0 916 z "},"o":{"ha":746,"x_min":0,"x_max":679,"o":"m 271 814 l 679 848 l 679 0 l 407 33 l 0 0 l 0 853 l 271 814 m 407 645 l 271 645 l 271 203 l 407 203 l 407 645 z "},"p":{"ha":746,"x_min":0,"x_max":679,"o":"m 271 373 l 407 475 l 407 678 l 271 644 l 271 373 m 271 203 l 271 34 l 0 0 l 0 853 l 271 814 l 679 848 l 679 508 l 271 203 z "},"q":{"ha":746,"x_min":0,"x_max":679,"o":"m 271 271 l 271 203 l 339 203 l 339 271 l 271 271 m 339 28 l 0 0 l 0 853 l 271 814 l 679 848 l 679 0 l 610 8 l 610 -170 l 339 -68 l 339 28 m 407 373 l 407 645 l 271 645 l 271 373 l 407 373 z "},"r":{"ha":746,"x_min":0,"x_max":678,"o":"m 271 373 l 407 475 l 407 678 l 271 644 l 271 373 m 271 237 l 271 34 l 0 0 l 0 853 l 271 814 l 678 848 l 678 509 l 441 339 l 678 339 l 678 -136 l 407 -34 l 407 237 l 271 237 z "},"s":{"ha":746,"x_min":0,"x_max":678,"o":"m 678 -5 l 407 34 l 0 0 l 0 170 l 406 203 l 406 306 l 0 475 l 0 848 l 271 814 l 678 848 l 678 678 l 271 644 l 271 543 l 678 373 l 678 -5 z "},"t":{"ha":746,"x_min":-34,"x_max":746,"o":"m 170 848 l 746 848 l 543 644 l 475 644 l 475 -34 l 203 -136 l 203 644 l -34 644 l 170 848 z "},"u":{"ha":746,"x_min":0,"x_max":678,"o":"m 0 610 l 271 848 l 271 203 l 407 203 l 406 780 l 678 848 l 678 0 l 407 34 l 0 0 l 0 610 z "},"v":{"ha":746,"x_min":0,"x_max":678,"o":"m 339 0 l 0 237 l 0 853 l 271 813 l 271 305 l 339 203 l 407 305 l 406 814 l 678 848 l 678 237 l 339 0 z "},"w":{"ha":1153,"x_min":0,"x_max":1085,"o":"m 541 141 l 339 0 l 0 237 l 0 853 l 271 813 l 271 305 l 339 203 l 407 305 l 406 814 l 678 848 l 678 300 l 746 197 l 814 300 l 813 808 l 1085 842 l 1085 232 l 747 0 l 541 141 z "},"x":{"ha":746,"x_min":0,"x_max":678,"o":"m 338 339 l 271 238 l 271 34 l 0 0 l 0 305 l 170 441 l 0 576 l 0 853 l 271 813 l 271 644 l 342 541 l 407 644 l 406 814 l 678 916 l 678 576 l 509 441 l 678 305 l 678 -136 l 407 -34 l 406 238 l 338 339 z "},"y":{"ha":746,"x_min":0,"x_max":678,"o":"m 203 414 l 0 576 l 0 853 l 271 813 l 271 644 l 342 541 l 407 644 l 406 814 l 678 916 l 678 576 l 475 414 l 475 -136 l 203 -34 l 203 414 z "},"z":{"ha":746,"x_min":0,"x_max":679,"o":"m 271 203 l 407 203 l 678 170 l 679 170 l 679 0 l 407 33 l 0 0 l 0 203 l 408 645 l 272 645 l 272 644 l 1 678 l 0 677 l 0 848 l 408 814 l 679 853 l 679 644 l 678 644 l 271 203 z "},"{":{"ha":543,"x_min":0,"x_max":475,"o":"m 339 -68 l 68 -34 l 68 339 l 34 339 l 0 509 l 68 509 l 68 949 l 339 983 l 475 949 l 475 780 l 339 814 l 339 509 l 271 441 l 339 373 l 339 102 l 475 136 l 475 -34 l 339 -68 z "},"|":{"ha":339,"x_min":0,"x_max":271,"o":"m 271 -34 l 0 -68 l 0 1017 l 271 983 l 271 -34 z "},"}":{"ha":543,"x_min":0,"x_max":475,"o":"m 136 983 l 407 949 l 407 576 l 441 576 l 475 407 l 407 407 l 407 -34 l 136 -68 l 0 -34 l 0 136 l 136 102 l 136 407 l 203 475 l 136 543 l 136 814 l 0 780 l 0 949 l 136 983 z "},"~":{"ha":678,"x_min":0,"x_max":610,"o":"m 305 916 l 237 1017 l 136 916 l 0 1017 l 170 1187 l 305 1187 l 373 1085 l 475 1187 l 610 1119 l 441 916 l 305 916 z "},"¡":{"ha":339,"x_min":0,"x_max":271,"o":"m 34 610 l 34 814 l 237 848 l 237 644 l 34 610 m 271 0 l 0 34 l 0 509 l 136 543 l 271 509 l 271 0 z "},"¢":{"ha":746,"x_min":0,"x_max":679,"o":"m 203 751 l 203 848 l 475 848 l 475 758 l 679 774 l 679 604 l 678 605 l 407 571 l 407 572 l 271 572 l 271 271 l 407 271 l 407 271 l 679 238 l 679 68 l 475 93 l 475 0 l 203 0 l 203 85 l 0 68 l 0 780 l 203 751 z "},"£":{"ha":746,"x_min":0,"x_max":679,"o":"m 68 339 l 34 339 l 0 509 l 68 509 l 68 746 l 407 848 l 678 814 l 678 644 l 677 645 l 407 678 l 339 644 l 339 509 l 509 509 l 543 339 l 339 339 l 339 203 l 407 203 l 679 170 l 679 0 l 407 33 l 68 0 l 0 0 l 0 170 l 68 170 l 68 339 z "},"¤":{"ha":746,"x_min":0,"x_max":678,"o":"m 372 475 l 305 509 l 305 406 l 372 406 l 372 475 m 644 332 l 678 305 l 678 -136 l 407 -34 l 406 214 l 305 203 l 271 208 l 271 34 l 0 0 l 0 305 l 34 332 l 34 549 l 0 576 l 0 853 l 271 813 l 271 668 l 373 678 l 407 674 l 406 814 l 678 916 l 678 576 l 644 549 l 644 332 z "},"¥":{"ha":746,"x_min":0,"x_max":678,"o":"m 170 441 l 0 576 l 0 853 l 271 813 l 271 644 l 342 541 l 407 644 l 406 814 l 678 916 l 678 576 l 509 441 l 610 441 l 644 271 l 475 271 l 475 203 l 610 203 l 644 34 l 475 34 l 475 -136 l 203 -34 l 203 34 l 68 34 l 34 203 l 203 203 l 203 271 l 68 271 l 34 441 l 170 441 z "},"¦":{"ha":339,"x_min":0,"x_max":271,"o":"m 271 441 l 271 -34 l 0 -68 l 0 407 l 271 441 m 0 543 l 0 1017 l 271 983 l 271 576 l 0 543 z "},"§":{"ha":814,"x_min":0,"x_max":746,"o":"m 406 543 l 339 576 l 339 474 l 406 474 l 406 543 m 678 509 l 746 480 l 746 0 l 475 39 l 0 0 l 0 170 l 474 209 l 474 285 l 339 271 l 68 305 l 68 547 l 0 576 l 0 1017 l 271 983 l 746 1023 l 746 853 l 271 814 l 271 732 l 407 746 l 678 712 l 678 509 z "},"¨":{"ha":543,"x_min":0,"x_max":475,"o":"m 203 1153 l 203 949 l 0 916 l 0 1119 l 203 1153 m 475 1153 l 475 949 l 271 916 l 271 1119 l 475 1153 z "},"©":{"ha":610,"x_min":0,"x_max":543,"o":"m 439 865 l 439 865 q 271 949 370 949 q 105 867 174 949 l 237 848 l 439 865 m 102 863 q 34 661 34 779 q 102 460 34 543 l 102 863 m 117 442 q 271 373 182 373 q 426 443 361 373 l 305 458 l 117 442 m 441 460 q 509 661 509 544 q 441 862 509 779 l 441 780 l 305 763 l 237 764 l 237 543 l 305 543 l 441 526 l 441 460 m 463 889 q 503 842 463 889 q 543 661 543 795 q 463 433 543 528 q 271 339 384 339 q 79 433 159 339 q 0 661 0 528 q 79 889 0 795 q 271 983 159 983 q 463 889 384 983 z "},"ª":{"ha":1119,"x_min":0,"x_max":1017,"o":"m 136 0 q 0 136 0 0 l 0 882 q 136 1017 0 1017 l 882 1017 q 1017 882 1017 1017 l 1017 136 q 882 0 1017 0 l 136 0 m 882 17 q 1000 136 1000 17 l 1000 882 q 882 1000 1000 1000 l 136 1000 q 17 882 18 1000 l 17 136 q 136 17 18 17 l 882 17 z "},"«":{"ha":1153,"x_min":0,"x_max":1085,"o":"m 0 509 l 509 780 l 610 610 l 271 441 l 610 271 l 509 102 l 0 373 l 0 509 m 475 509 l 983 780 l 1085 610 l 746 441 l 1085 271 l 983 102 l 475 373 l 475 509 z "},"¬":{"ha":1119,"x_min":0,"x_max":1017,"o":"m 136 0 q 0 136 0 0 l 0 882 q 136 1017 0 1017 l 882 1017 q 1017 882 1017 1017 l 1017 136 q 882 0 1017 0 l 136 0 m 882 17 q 1000 136 1000 17 l 1000 882 q 882 1000 1000 1000 l 136 1000 q 17 882 18 1000 l 17 136 q 136 17 18 17 l 882 17 z "},"®":{"ha":610,"x_min":0,"x_max":543,"o":"m 237 627 l 305 678 l 305 780 l 237 763 l 237 627 m 441 460 q 509 661 509 543 q 441 863 509 779 l 441 695 l 322 610 l 441 610 l 441 460 m 102 460 l 102 863 q 34 661 34 779 q 102 460 34 543 m 105 867 l 237 848 l 439 865 q 271 949 370 949 q 105 867 174 949 m 372 399 l 305 424 l 305 559 l 237 559 l 237 458 l 117 443 q 271 373 182 373 q 372 399 326 373 m 441 410 l 441 373 l 411 384 q 271 339 349 339 q 79 433 159 339 q 0 661 0 528 q 79 889 0 795 q 271 983 159 983 q 463 889 384 983 q 543 661 543 795 q 463 433 543 528 q 441 410 452 420 z "},"¯":{"ha":1119,"x_min":0,"x_max":1017,"o":"m 136 0 q 0 136 0 0 l 0 882 q 136 1017 0 1017 l 882 1017 q 1017 882 1017 1017 l 1017 136 q 882 0 1017 0 l 136 0 m 882 17 q 1000 136 1000 17 l 1000 882 q 882 1000 1000 1000 l 136 1000 q 17 882 18 1000 l 17 136 q 136 17 18 17 l 882 17 z "},"°":{"ha":678,"x_min":0,"x_max":610,"o":"m 338 712 l 271 746 l 271 644 l 338 644 l 338 712 m 610 475 l 271 441 l 0 475 l 0 882 l 339 916 l 610 882 l 610 475 z "},"±":{"ha":1119,"x_min":0,"x_max":1017,"o":"m 136 0 q 0 136 0 0 l 0 882 q 136 1017 0 1017 l 882 1017 q 1017 882 1017 1017 l 1017 136 q 882 0 1017 0 l 136 0 m 882 17 q 1000 136 1000 17 l 1000 882 q 882 1000 1000 1000 l 136 1000 q 17 882 18 1000 l 17 136 q 136 17 18 17 l 882 17 z "},"²":{"ha":1119,"x_min":0,"x_max":1017,"o":"m 136 0 q 0 136 0 0 l 0 882 q 136 1017 0 1017 l 882 1017 q 1017 882 1017 1017 l 1017 136 q 882 0 1017 0 l 136 0 m 882 17 q 1000 136 1000 17 l 1000 882 q 882 1000 1000 1000 l 136 1000 q 17 882 18 1000 l 17 136 q 136 17 18 17 l 882 17 z "},"³":{"ha":1119,"x_min":0,"x_max":1017,"o":"m 136 0 q 0 136 0 0 l 0 882 q 136 1017 0 1017 l 882 1017 q 1017 882 1017 1017 l 1017 136 q 882 0 1017 0 l 136 0 m 882 17 q 1000 136 1000 17 l 1000 882 q 882 1000 1000 1000 l 136 1000 q 17 882 18 1000 l 17 136 q 136 17 18 17 l 882 17 z "},"´":{"ha":475,"x_min":0,"x_max":407,"o":"m 136 1119 l 407 1119 l 136 916 l 0 916 l 136 1119 z "},"µ":{"ha":746,"x_min":0,"x_max":678,"o":"m 0 610 l 271 848 l 271 203 l 271 203 l 271 203 l 407 203 l 406 780 l 678 848 l 678 0 l 407 34 l 271 33 l 271 -34 l 0 -136 l 0 610 z "},"¶":{"ha":694,"x_min":76,"x_max":756,"o":"m 756 1168 l 756 1111 l 652 1111 l 652 0 l 586 0 l 586 1111 l 451 1111 l 451 0 l 382 0 l 382 601 q 158 684 241 607 q 76 884 76 761 q 163 1090 76 1012 q 395 1168 251 1168 l 756 1168 z "},"·":{"ha":271,"x_min":0,"x_max":203,"o":"m 203 576 l 203 373 l 0 339 l 0 543 l 203 576 z "},"¸":{"ha":543,"x_min":0,"x_max":475,"o":"m 0 -68 l 203 -102 l 203 102 l 475 102 l 475 -237 l 203 -271 l 0 -237 l 0 -68 z "},"¹":{"ha":1119,"x_min":0,"x_max":1017,"o":"m 136 0 q 0 136 0 0 l 0 882 q 136 1017 0 1017 l 882 1017 q 1017 882 1017 1017 l 1017 136 q 882 0 1017 0 l 136 0 m 882 17 q 1000 136 1000 17 l 1000 882 q 882 1000 1000 1000 l 136 1000 q 17 882 18 1000 l 17 136 q 136 17 18 17 l 882 17 z "},"º":{"ha":1119,"x_min":0,"x_max":1017,"o":"m 136 0 q 0 136 0 0 l 0 882 q 136 1017 0 1017 l 882 1017 q 1017 882 1017 1017 l 1017 136 q 882 0 1017 0 l 136 0 m 882 17 q 1000 136 1000 17 l 1000 882 q 882 1000 1000 1000 l 136 1000 q 17 882 18 1000 l 17 136 q 136 17 18 17 l 882 17 z "},"»":{"ha":1153,"x_min":0,"x_max":1085,"o":"m 1085 373 l 576 102 l 475 271 l 814 441 l 475 610 l 576 780 l 1085 509 l 1085 373 m 610 373 l 102 102 l 0 271 l 339 441 l 0 610 l 102 780 l 610 509 l 610 373 z "},"¼":{"ha":1119,"x_min":0,"x_max":1017,"o":"m 136 0 q 0 136 0 0 l 0 882 q 136 1017 0 1017 l 882 1017 q 1017 882 1017 1017 l 1017 136 q 882 0 1017 0 l 136 0 m 882 17 q 1000 136 1000 17 l 1000 882 q 882 1000 1000 1000 l 136 1000 q 17 882 18 1000 l 17 136 q 136 17 18 17 l 882 17 z "},"½":{"ha":1119,"x_min":0,"x_max":1017,"o":"m 136 0 q 0 136 0 0 l 0 882 q 136 1017 0 1017 l 882 1017 q 1017 882 1017 1017 l 1017 136 q 882 0 1017 0 l 136 0 m 882 17 q 1000 136 1000 17 l 1000 882 q 882 1000 1000 1000 l 136 1000 q 17 882 18 1000 l 17 136 q 136 17 18 17 l 882 17 z "},"¾":{"ha":1119,"x_min":0,"x_max":1017,"o":"m 136 0 q 0 136 0 0 l 0 882 q 136 1017 0 1017 l 882 1017 q 1017 882 1017 1017 l 1017 136 q 882 0 1017 0 l 136 0 m 882 17 q 1000 136 1000 17 l 1000 882 q 882 1000 1000 1000 l 136 1000 q 17 882 18 1000 l 17 136 q 136 17 18 17 l 882 17 z "},"¿":{"ha":746,"x_min":0,"x_max":678,"o":"m 271 610 l 271 814 l 475 848 l 475 644 l 271 610 m 0 237 l 237 441 l 237 509 l 373 543 l 509 509 l 509 441 l 271 237 l 271 181 l 407 170 l 678 203 l 678 34 l 407 0 l 0 34 l 0 237 z "},"À":{"ha":814,"x_min":0,"x_max":746,"o":"m 475 808 l 271 808 l 271 475 l 475 475 l 475 808 m 746 -136 l 475 -34 l 475 305 l 271 305 l 271 34 l 0 0 l 0 1017 l 271 978 l 746 1012 l 746 -136 m 576 1085 l 441 1085 l 170 1289 l 441 1289 l 576 1085 z "},"Á":{"ha":814,"x_min":0,"x_max":746,"o":"m 475 808 l 271 808 l 271 475 l 475 475 l 475 808 m 746 -136 l 475 -34 l 475 305 l 271 305 l 271 34 l 0 0 l 0 1017 l 271 978 l 746 1012 l 746 -136 m 305 1289 l 576 1289 l 305 1085 l 170 1085 l 305 1289 z "},"Â":{"ha":814,"x_min":0,"x_max":746,"o":"m 475 808 l 271 808 l 271 475 l 475 475 l 475 808 m 746 -136 l 475 -34 l 475 305 l 271 305 l 271 34 l 0 0 l 0 1017 l 271 978 l 746 1012 l 746 -136 m 102 1119 l 305 1356 l 441 1356 l 644 1119 l 441 1085 l 373 1187 l 305 1085 l 102 1119 z "},"Ã":{"ha":814,"x_min":0,"x_max":746,"o":"m 475 808 l 271 808 l 271 475 l 475 475 l 475 808 m 746 -136 l 475 -34 l 475 305 l 271 305 l 271 34 l 0 0 l 0 1017 l 271 978 l 746 1012 l 746 -136 m 373 1085 l 305 1187 l 203 1085 l 68 1187 l 237 1356 l 373 1356 l 441 1255 l 543 1356 l 678 1289 l 509 1085 l 373 1085 z "},"Ä":{"ha":814,"x_min":0,"x_max":746,"o":"m 475 808 l 271 808 l 271 475 l 475 475 l 475 808 m 746 -136 l 475 -34 l 475 305 l 271 305 l 271 34 l 0 0 l 0 1017 l 271 978 l 746 1012 l 746 -136 m 339 1322 l 339 1119 l 136 1085 l 136 1289 l 339 1322 m 610 1322 l 610 1119 l 407 1085 l 407 1289 l 610 1322 z "},"Å":{"ha":814,"x_min":0,"x_max":746,"o":"m 475 808 l 271 808 l 271 475 l 475 475 l 475 808 m 746 -136 l 475 -34 l 475 305 l 271 305 l 271 34 l 0 0 l 0 1017 l 271 978 l 746 1012 l 746 -136 m 373 1085 q 301 1125 331 1085 q 271 1221 271 1164 q 301 1317 271 1277 q 373 1356 331 1356 q 445 1317 415 1356 q 475 1221 475 1277 q 445 1125 475 1164 q 373 1085 415 1085 m 373 1187 q 397 1197 387 1187 q 407 1221 407 1206 q 397 1245 407 1235 q 373 1255 387 1255 q 349 1245 359 1255 q 339 1221 339 1235 q 349 1197 339 1206 q 373 1187 359 1187 z "},"Æ":{"ha":1289,"x_min":0,"x_max":1221,"o":"m 475 808 l 271 808 l 271 475 l 475 475 l 475 808 m 746 19 l 746 -136 l 475 -34 l 475 305 l 271 305 l 271 34 l 0 0 l 0 1017 l 271 978 l 746 1012 l 746 978 l 1221 1012 l 1221 842 l 1220 842 l 949 808 l 949 809 l 746 809 l 746 576 l 1152 576 l 1084 407 l 746 407 l 746 203 l 949 203 l 1221 170 l 1221 0 l 949 33 l 746 19 z "},"Ç":{"ha":814,"x_min":0,"x_max":746,"o":"m 339 24 l 0 0 l 0 1017 l 271 978 l 746 1012 l 745 842 l 474 809 l 271 809 l 271 203 l 474 203 l 474 203 l 746 170 l 746 0 l 610 16 l 610 -237 l 339 -271 l 136 -237 l 136 -68 l 339 -102 l 339 24 z "},"È":{"ha":814,"x_min":0,"x_max":746,"o":"m 576 1085 l 441 1085 l 170 1289 l 441 1289 l 576 1085 m 271 407 l 271 203 l 474 203 l 746 170 l 746 0 l 474 33 l 0 0 l 0 1017 l 271 978 l 746 1012 l 746 842 l 745 842 l 474 808 l 474 809 l 271 809 l 271 576 l 677 576 l 610 407 l 271 407 z "},"É":{"ha":814,"x_min":0,"x_max":746,"o":"m 305 1289 l 576 1289 l 305 1085 l 170 1085 l 305 1289 m 271 407 l 271 203 l 474 203 l 746 170 l 746 0 l 474 33 l 0 0 l 0 1017 l 271 978 l 746 1012 l 746 842 l 745 842 l 474 808 l 474 809 l 271 809 l 271 576 l 677 576 l 610 407 l 271 407 z "},"Ê":{"ha":814,"x_min":0,"x_max":746,"o":"m 102 1119 l 305 1356 l 441 1356 l 644 1119 l 441 1085 l 373 1187 l 305 1085 l 102 1119 m 271 407 l 271 203 l 474 203 l 746 170 l 746 0 l 474 33 l 0 0 l 0 1017 l 271 978 l 746 1012 l 746 842 l 745 842 l 474 808 l 474 809 l 271 809 l 271 576 l 677 576 l 610 407 l 271 407 z "},"Ë":{"ha":814,"x_min":0,"x_max":746,"o":"m 339 1322 l 339 1119 l 136 1085 l 136 1289 l 339 1322 m 610 1322 l 610 1119 l 407 1085 l 407 1289 l 610 1322 m 271 407 l 271 203 l 474 203 l 746 170 l 746 0 l 474 33 l 0 0 l 0 1017 l 271 978 l 746 1012 l 746 842 l 745 842 l 474 808 l 474 809 l 271 809 l 271 576 l 677 576 l 610 407 l 271 407 z "},"Ì":{"ha":339,"x_min":-68,"x_max":339,"o":"m 271 34 l 0 0 l 0 1017 l 271 978 l 271 34 m 339 1085 l 203 1085 l -68 1289 l 203 1289 l 339 1085 z "},"Í":{"ha":339,"x_min":-68,"x_max":339,"o":"m 271 34 l 0 0 l 0 1017 l 271 978 l 271 34 m 68 1289 l 339 1289 l 68 1085 l -68 1085 l 68 1289 z "},"Î":{"ha":339,"x_min":-136,"x_max":407,"o":"m 271 34 l 0 0 l 0 1017 l 271 978 l 271 34 m -136 1119 l 68 1356 l 203 1356 l 407 1119 l 203 1085 l 136 1187 l 68 1085 l -136 1119 z "},"Ï":{"ha":339,"x_min":-102,"x_max":373,"o":"m 271 34 l 0 0 l 0 1017 l 271 978 l 271 34 m 102 1322 l 102 1119 l -102 1085 l -102 1289 l 102 1322 m 373 1322 l 373 1119 l 170 1085 l 170 1289 l 373 1322 z "},"Ð":{"ha":814,"x_min":0,"x_max":747,"o":"m 339 543 l 339 203 l 474 203 l 475 848 l 339 780 l 339 712 l 407 712 l 441 543 l 339 543 m 68 712 l 68 983 l 339 1017 l 339 949 l 475 1017 l 746 949 l 747 102 l 475 0 l 68 0 l 68 543 l 34 543 l 0 712 l 68 712 z "},"Ñ":{"ha":814,"x_min":0,"x_max":746,"o":"m 0 1085 l 475 644 l 475 949 l 746 1017 l 746 -68 l 271 407 l 271 34 l 0 0 l 0 1085 m 373 1085 l 305 1187 l 203 1085 l 68 1187 l 237 1356 l 373 1356 l 441 1255 l 543 1356 l 678 1289 l 509 1085 l 373 1085 z "},"Ò":{"ha":814,"x_min":0,"x_max":747,"o":"m 271 983 l 747 1017 l 746 0 l 474 34 l 0 0 l 0 1008 l 271 983 m 475 848 l 271 848 l 271 203 l 474 203 l 475 848 m 576 1085 l 441 1085 l 170 1289 l 441 1289 l 576 1085 z "},"Ó":{"ha":814,"x_min":0,"x_max":747,"o":"m 271 983 l 747 1017 l 746 0 l 474 34 l 0 0 l 0 1008 l 271 983 m 475 848 l 271 848 l 271 203 l 474 203 l 475 848 m 305 1289 l 576 1289 l 305 1085 l 170 1085 l 305 1289 z "},"Ô":{"ha":814,"x_min":0,"x_max":747,"o":"m 271 983 l 747 1017 l 746 0 l 474 34 l 0 0 l 0 1008 l 271 983 m 475 848 l 271 848 l 271 203 l 474 203 l 475 848 m 102 1119 l 305 1356 l 441 1356 l 644 1119 l 441 1085 l 373 1187 l 305 1085 l 102 1119 z "},"Õ":{"ha":814,"x_min":0,"x_max":747,"o":"m 271 983 l 747 1017 l 746 0 l 474 34 l 0 0 l 0 1008 l 271 983 m 475 848 l 271 848 l 271 203 l 474 203 l 475 848 m 373 1085 l 305 1187 l 203 1085 l 68 1187 l 237 1356 l 373 1356 l 441 1255 l 543 1356 l 678 1289 l 509 1085 l 373 1085 z "},"Ö":{"ha":814,"x_min":0,"x_max":747,"o":"m 271 983 l 747 1017 l 746 0 l 474 34 l 0 0 l 0 1008 l 271 983 m 475 848 l 271 848 l 271 203 l 474 203 l 475 848 m 339 1322 l 339 1119 l 136 1085 l 136 1289 l 339 1322 m 610 1322 l 610 1119 l 407 1085 l 407 1289 l 610 1322 z "},"×":{"ha":746,"x_min":0,"x_max":678,"o":"m 338 339 l 271 238 l 271 102 l 0 68 l 0 305 l 170 441 l 0 576 l 0 785 l 271 745 l 271 644 l 342 541 l 407 644 l 406 746 l 678 848 l 678 576 l 509 441 l 678 305 l 678 68 l 407 102 l 407 237 l 338 339 z "},"Ø":{"ha":814,"x_min":0,"x_max":747,"o":"m 293 203 l 474 203 l 474 482 l 293 203 m 453 848 l 271 848 l 271 568 l 453 848 m 271 983 l 747 1017 l 746 0 l 474 34 l 0 0 l 0 1008 l 271 983 z "},"Ù":{"ha":814,"x_min":0,"x_max":746,"o":"m 0 779 l 271 1017 l 271 203 l 475 203 l 474 949 l 746 1017 l 746 0 l 475 34 l 0 0 l 0 779 m 576 1085 l 441 1085 l 170 1289 l 441 1289 l 576 1085 z "},"Ú":{"ha":814,"x_min":0,"x_max":746,"o":"m 0 779 l 271 1017 l 271 203 l 475 203 l 474 949 l 746 1017 l 746 0 l 475 34 l 0 0 l 0 779 m 305 1289 l 576 1289 l 305 1085 l 170 1085 l 305 1289 z "},"Û":{"ha":814,"x_min":0,"x_max":746,"o":"m 0 779 l 271 1017 l 271 203 l 475 203 l 474 949 l 746 1017 l 746 0 l 475 34 l 0 0 l 0 779 m 102 1119 l 305 1356 l 441 1356 l 644 1119 l 441 1085 l 373 1187 l 305 1085 l 102 1119 z "},"Ü":{"ha":814,"x_min":0,"x_max":746,"o":"m 0 779 l 271 1017 l 271 203 l 475 203 l 474 949 l 746 1017 l 746 0 l 475 34 l 0 0 l 0 779 m 339 1322 l 339 1119 l 136 1085 l 136 1289 l 339 1322 m 610 1322 l 610 1119 l 407 1085 l 407 1289 l 610 1322 z "},"Ý":{"ha":814,"x_min":0,"x_max":746,"o":"m 237 373 l 0 576 l 0 1023 l 271 983 l 271 644 l 373 543 l 475 644 l 474 983 l 746 1085 l 746 576 l 509 373 l 509 -136 l 237 -34 l 237 373 m 305 1289 l 576 1289 l 305 1085 l 170 1085 l 305 1289 z "},"Þ":{"ha":814,"x_min":0,"x_max":746,"o":"m 271 407 l 475 543 l 475 678 l 271 644 l 271 407 m 271 203 l 271 34 l 0 0 l 0 1017 l 271 983 l 271 842 l 746 882 l 746 543 l 271 203 z "},"ß":{"ha":882,"x_min":0,"x_max":747,"o":"m 475 203 l 475 373 l 339 407 l 339 576 l 475 610 l 475 814 l 272 800 l 271 -34 l 0 -136 l 0 983 l 475 1017 l 747 989 l 746 576 l 678 509 l 746 441 l 746 34 l 475 0 l 339 0 l 339 203 l 475 203 z "},"à":{"ha":746,"x_min":0,"x_max":678,"o":"m 407 644 l 271 644 l 271 407 l 407 407 l 407 644 m 678 -136 l 407 -34 l 407 237 l 271 237 l 271 34 l 0 0 l 0 853 l 271 814 l 678 848 l 678 -136 m 543 916 l 407 916 l 136 1119 l 407 1119 l 543 916 z "},"á":{"ha":746,"x_min":0,"x_max":678,"o":"m 407 644 l 271 644 l 271 407 l 407 407 l 407 644 m 678 -136 l 407 -34 l 407 237 l 271 237 l 271 34 l 0 0 l 0 853 l 271 814 l 678 848 l 678 -136 m 271 1119 l 543 1119 l 271 916 l 136 916 l 271 1119 z "},"â":{"ha":746,"x_min":0,"x_max":678,"o":"m 407 644 l 271 644 l 271 407 l 407 407 l 407 644 m 678 -136 l 407 -34 l 407 237 l 271 237 l 271 34 l 0 0 l 0 853 l 271 814 l 678 848 l 678 -136 m 68 949 l 271 1187 l 407 1187 l 610 949 l 407 916 l 339 1017 l 271 916 l 68 949 z "},"ã":{"ha":746,"x_min":0,"x_max":678,"o":"m 407 644 l 271 644 l 271 407 l 407 407 l 407 644 m 678 -136 l 407 -34 l 407 237 l 271 237 l 271 34 l 0 0 l 0 853 l 271 814 l 678 848 l 678 -136 m 339 916 l 271 1017 l 170 916 l 34 1017 l 203 1187 l 339 1187 l 407 1085 l 509 1187 l 644 1119 l 475 916 l 339 916 z "},"ä":{"ha":746,"x_min":0,"x_max":678,"o":"m 407 644 l 271 644 l 271 407 l 407 407 l 407 644 m 678 -136 l 407 -34 l 407 237 l 271 237 l 271 34 l 0 0 l 0 853 l 271 814 l 678 848 l 678 -136 m 305 1153 l 305 949 l 102 916 l 102 1119 l 305 1153 m 576 1153 l 576 949 l 373 916 l 373 1119 l 576 1153 z "},"å":{"ha":746,"x_min":0,"x_max":678,"o":"m 407 644 l 271 644 l 271 407 l 407 407 l 407 644 m 678 -136 l 407 -34 l 407 237 l 271 237 l 271 34 l 0 0 l 0 853 l 271 814 l 678 848 l 678 -136 m 339 916 q 267 955 297 916 q 237 1051 237 995 q 267 1147 237 1107 q 339 1187 297 1187 q 411 1147 381 1187 q 441 1051 441 1107 q 411 955 441 995 q 339 916 381 916 m 339 1017 q 363 1027 353 1017 q 373 1051 373 1037 q 363 1075 373 1065 q 339 1085 353 1085 q 315 1075 325 1085 q 305 1051 305 1065 q 315 1027 305 1037 q 339 1017 325 1017 z "},"æ":{"ha":1153,"x_min":0,"x_max":1086,"o":"m 407 644 l 271 644 l 271 407 l 407 407 l 407 644 m 678 20 l 678 -136 l 407 -34 l 407 237 l 271 237 l 271 34 l 0 0 l 0 853 l 271 814 l 678 848 l 678 814 l 1086 848 l 1086 677 l 1085 678 l 814 644 l 814 645 l 678 645 l 678 509 l 1017 509 l 949 339 l 678 339 l 678 203 l 814 203 l 814 203 l 1085 170 l 1086 170 l 1086 0 l 814 33 l 678 20 z "},"ç":{"ha":746,"x_min":0,"x_max":679,"o":"m 305 25 l 0 0 l 0 853 l 271 814 l 679 848 l 678 678 l 407 644 l 271 645 l 271 203 l 407 203 l 407 203 l 679 170 l 679 0 l 576 12 l 576 -237 l 305 -271 l 102 -237 l 102 -68 l 305 -102 l 305 25 z "},"è":{"ha":746,"x_min":0,"x_max":679,"o":"m 543 916 l 407 916 l 136 1119 l 407 1119 l 543 916 m 271 339 l 271 203 l 407 203 l 679 170 l 679 0 l 407 33 l 0 0 l 0 853 l 271 814 l 679 848 l 679 677 l 678 678 l 407 644 l 407 645 l 271 645 l 271 509 l 610 509 l 543 339 l 271 339 z "},"é":{"ha":746,"x_min":0,"x_max":679,"o":"m 271 1119 l 543 1119 l 271 916 l 136 916 l 271 1119 m 271 339 l 271 203 l 407 203 l 679 170 l 679 0 l 407 33 l 0 0 l 0 853 l 271 814 l 679 848 l 679 677 l 678 678 l 407 644 l 407 645 l 271 645 l 271 509 l 610 509 l 543 339 l 271 339 z "},"ê":{"ha":746,"x_min":0,"x_max":679,"o":"m 68 949 l 271 1187 l 407 1187 l 610 949 l 407 916 l 339 1017 l 271 916 l 68 949 m 271 339 l 271 203 l 407 203 l 679 170 l 679 0 l 407 33 l 0 0 l 0 853 l 271 814 l 679 848 l 679 677 l 678 678 l 407 644 l 407 645 l 271 645 l 271 509 l 610 509 l 543 339 l 271 339 z "},"ë":{"ha":746,"x_min":0,"x_max":679,"o":"m 305 1153 l 305 949 l 102 916 l 102 1119 l 305 1153 m 576 1153 l 576 949 l 373 916 l 373 1119 l 576 1153 m 271 339 l 271 203 l 407 203 l 679 170 l 679 0 l 407 33 l 0 0 l 0 853 l 271 814 l 679 848 l 679 677 l 678 678 l 407 644 l 407 645 l 271 645 l 271 509 l 610 509 l 543 339 l 271 339 z "},"ì":{"ha":339,"x_min":-68,"x_max":339,"o":"m 271 34 l 0 0 l 0 853 l 271 814 l 271 34 m 339 916 l 203 916 l -68 1119 l 203 1119 l 339 916 z "},"í":{"ha":339,"x_min":-68,"x_max":339,"o":"m 271 34 l 0 0 l 0 853 l 271 814 l 271 34 m 68 1119 l 339 1119 l 68 916 l -68 916 l 68 1119 z "},"î":{"ha":339,"x_min":-136,"x_max":407,"o":"m 271 34 l 0 0 l 0 853 l 271 814 l 271 34 m -136 949 l 68 1187 l 203 1187 l 407 949 l 203 916 l 136 1017 l 68 916 l -136 949 z "},"ï":{"ha":339,"x_min":-102,"x_max":373,"o":"m 271 34 l 0 0 l 0 853 l 271 814 l 271 34 m 102 1153 l 102 949 l -102 916 l -102 1119 l 102 1153 m 373 1153 l 373 949 l 170 916 l 170 1119 l 373 1153 z "},"ð":{"ha":746,"x_min":0,"x_max":680,"o":"m 339 407 l 339 203 l 406 203 l 407 712 l 339 678 l 339 576 l 373 407 l 339 407 m 68 576 l 68 853 l 339 882 l 339 847 l 408 882 l 680 814 l 679 102 l 407 0 l 68 0 l 68 407 l 34 407 l 0 576 l 68 576 z "},"ñ":{"ha":746,"x_min":0,"x_max":678,"o":"m 0 916 l 407 508 l 407 814 l 678 916 l 678 -68 l 271 372 l 271 34 l 0 0 l 0 916 m 339 916 l 271 1017 l 170 916 l 34 1017 l 203 1187 l 339 1187 l 407 1085 l 509 1187 l 644 1119 l 475 916 l 339 916 z "},"ò":{"ha":746,"x_min":0,"x_max":679,"o":"m 271 814 l 679 848 l 679 0 l 407 33 l 0 0 l 0 853 l 271 814 m 407 645 l 271 645 l 271 203 l 407 203 l 407 645 m 543 916 l 407 916 l 136 1119 l 407 1119 l 543 916 z "},"ó":{"ha":746,"x_min":0,"x_max":679,"o":"m 271 814 l 679 848 l 679 0 l 407 33 l 0 0 l 0 853 l 271 814 m 407 645 l 271 645 l 271 203 l 407 203 l 407 645 m 271 1119 l 543 1119 l 271 916 l 136 916 l 271 1119 z "},"ô":{"ha":746,"x_min":0,"x_max":679,"o":"m 271 814 l 679 848 l 679 0 l 407 33 l 0 0 l 0 853 l 271 814 m 407 645 l 271 645 l 271 203 l 407 203 l 407 645 m 68 949 l 271 1187 l 407 1187 l 610 949 l 407 916 l 339 1017 l 271 916 l 68 949 z "},"õ":{"ha":746,"x_min":0,"x_max":679,"o":"m 271 814 l 679 848 l 679 0 l 407 33 l 0 0 l 0 853 l 271 814 m 407 645 l 271 645 l 271 203 l 407 203 l 407 645 m 339 916 l 271 1017 l 170 916 l 34 1017 l 203 1187 l 339 1187 l 407 1085 l 509 1187 l 644 1119 l 475 916 l 339 916 z "},"ö":{"ha":746,"x_min":0,"x_max":679,"o":"m 271 814 l 679 848 l 679 0 l 407 33 l 0 0 l 0 853 l 271 814 m 407 645 l 271 645 l 271 203 l 407 203 l 407 645 m 305 1153 l 305 949 l 102 916 l 102 1119 l 305 1153 m 576 1153 l 576 949 l 373 916 l 373 1119 l 576 1153 z "},"÷":{"ha":678,"x_min":0,"x_max":611,"o":"m 0 407 l 34 576 l 611 576 l 576 407 l 0 407 m 407 339 l 407 136 l 203 102 l 203 305 l 407 339 m 407 882 l 407 678 l 203 644 l 203 848 l 407 882 z "},"ø":{"ha":746,"x_min":0,"x_max":679,"o":"m 298 203 l 407 203 l 407 342 l 298 203 m 381 645 l 271 645 l 271 505 l 381 645 m 271 814 l 679 848 l 679 0 l 407 33 l 0 0 l 0 853 l 271 814 z "},"ù":{"ha":746,"x_min":0,"x_max":678,"o":"m 0 610 l 271 848 l 271 203 l 407 203 l 406 780 l 678 848 l 678 0 l 407 34 l 0 0 l 0 610 m 543 916 l 407 916 l 136 1119 l 407 1119 l 543 916 z "},"ú":{"ha":746,"x_min":0,"x_max":678,"o":"m 0 610 l 271 848 l 271 203 l 407 203 l 406 780 l 678 848 l 678 0 l 407 34 l 0 0 l 0 610 m 271 1119 l 543 1119 l 271 916 l 136 916 l 271 1119 z "},"û":{"ha":746,"x_min":0,"x_max":678,"o":"m 0 610 l 271 848 l 271 203 l 407 203 l 406 780 l 678 848 l 678 0 l 407 34 l 0 0 l 0 610 m 68 949 l 271 1187 l 407 1187 l 610 949 l 407 916 l 339 1017 l 271 916 l 68 949 z "},"ü":{"ha":746,"x_min":0,"x_max":678,"o":"m 0 610 l 271 848 l 271 203 l 407 203 l 406 780 l 678 848 l 678 0 l 407 34 l 0 0 l 0 610 m 305 1153 l 305 949 l 102 916 l 102 1119 l 305 1153 m 576 1153 l 576 949 l 373 916 l 373 1119 l 576 1153 z "},"ý":{"ha":746,"x_min":0,"x_max":678,"o":"m 203 414 l 0 576 l 0 853 l 271 813 l 271 644 l 342 541 l 407 644 l 406 814 l 678 916 l 678 576 l 475 414 l 475 -136 l 203 -34 l 203 414 m 271 1119 l 543 1119 l 271 916 l 136 916 l 271 1119 z "},"þ":{"ha":746,"x_min":0,"x_max":678,"o":"m 271 373 l 407 475 l 406 576 l 271 543 l 271 373 m 271 203 l 271 34 l 0 0 l 0 853 l 272 814 l 271 712 l 678 746 l 678 509 l 271 203 z "},"ÿ":{"ha":746,"x_min":0,"x_max":678,"o":"m 203 414 l 0 576 l 0 853 l 271 813 l 271 644 l 342 541 l 407 644 l 406 814 l 678 916 l 678 576 l 475 414 l 475 -136 l 203 -34 l 203 414 m 305 1153 l 305 949 l 102 916 l 102 1119 l 305 1153 m 576 1153 l 576 949 l 373 916 l 373 1119 l 576 1153 z "},"ı":{"ha":339,"x_min":0,"x_max":271,"o":"m 271 34 l 0 0 l 0 853 l 271 814 l 271 34 z "},"ˆ":{"ha":610,"x_min":0,"x_max":543,"o":"m 0 949 l 203 1187 l 339 1187 l 543 949 l 339 916 l 271 1017 l 203 916 l 0 949 z "},"ˇ":{"ha":610,"x_min":0,"x_max":543,"o":"m 543 1153 l 339 916 l 203 916 l 0 1153 l 203 1187 l 271 1085 l 339 1187 l 543 1153 z "},"ˉ":{"ha":694,"x_min":172,"x_max":522,"o":"m 172 810 l 172 895 l 522 895 l 522 810 l 172 810 z "},"˘":{"ha":694,"x_min":149,"x_max":545,"o":"m 149 915 l 183 915 q 234 842 195 865 q 347 819 273 819 q 460 842 421 819 q 510 915 498 865 l 545 915 q 481 778 531 825 q 347 732 431 732 q 214 779 264 732 q 149 915 163 825 z "},"˙":{"ha":271,"x_min":0,"x_max":203,"o":"m 203 1153 l 203 949 l 0 916 l 0 1119 l 203 1153 z "},"˚":{"ha":271,"x_min":0,"x_max":203,"o":"m 102 916 q 30 955 60 916 q 0 1051 0 995 q 30 1147 0 1107 q 102 1187 60 1187 q 174 1147 144 1187 q 203 1051 203 1107 q 174 955 203 995 q 102 916 144 916 m 102 1017 q 126 1027 116 1017 q 136 1051 136 1037 q 126 1075 136 1065 q 102 1085 116 1085 q 78 1075 87 1085 q 68 1051 68 1065 q 78 1027 68 1037 q 102 1017 87 1017 z "},"˛":{"ha":543,"x_min":0,"x_max":475,"o":"m 475 -237 l 271 -271 l 0 -237 l 0 102 l 271 102 l 271 -102 l 475 -68 l 475 -237 z "},"˜":{"ha":678,"x_min":0,"x_max":610,"o":"m 305 916 l 237 1017 l 136 916 l 0 1017 l 170 1187 l 305 1187 l 373 1085 l 475 1187 l 610 1119 l 441 916 l 305 916 z "},"˝":{"ha":694,"x_min":147,"x_max":547,"o":"m 147 732 l 245 917 q 276 960 261 947 q 307 972 290 972 q 340 959 326 972 q 353 927 353 945 q 346 903 353 916 q 326 876 339 890 l 186 732 l 147 732 m 340 732 l 438 917 q 469 960 454 947 q 500 972 484 972 q 533 959 519 972 q 547 927 547 945 q 539 903 547 916 q 519 876 532 890 l 380 732 l 340 732 z "},"–":{"ha":746,"x_min":0,"x_max":679,"o":"m 0 407 l 34 576 l 679 576 l 644 407 l 0 407 z "},"—":{"ha":814,"x_min":0,"x_max":747,"o":"m 0 407 l 34 576 l 747 576 l 712 407 l 0 407 z "},"‘":{"ha":271,"x_min":0,"x_max":203,"o":"m 203 712 l 203 509 l 0 475 l 0 678 l 136 848 l 170 848 l 170 780 l 203 712 z "},"’":{"ha":271,"x_min":0,"x_max":203,"o":"m 0 610 l 0 814 l 203 848 l 203 644 l 68 475 l 34 475 l 34 543 l 0 610 z "},"‚":{"ha":271,"x_min":0,"x_max":203,"o":"m 0 0 l 0 203 l 203 237 l 203 34 l 68 -136 l 34 -136 l 34 -68 l 0 0 z "},"“":{"ha":543,"x_min":0,"x_max":475,"o":"m 475 712 l 475 509 l 271 475 l 271 678 l 407 848 l 441 848 l 441 780 l 475 712 m 203 712 l 203 509 l 0 475 l 0 678 l 136 848 l 170 848 l 170 780 l 203 712 z "},"”":{"ha":543,"x_min":0,"x_max":475,"o":"m 0 610 l 0 814 l 203 848 l 203 644 l 68 475 l 34 475 l 34 543 l 0 610 m 271 610 l 271 814 l 475 848 l 475 644 l 339 475 l 305 475 l 305 543 l 271 610 z "},"„":{"ha":543,"x_min":0,"x_max":475,"o":"m 0 0 l 0 203 l 203 237 l 203 34 l 68 -136 l 34 -136 l 34 -68 l 0 0 m 271 0 l 271 203 l 475 237 l 475 34 l 339 -136 l 305 -136 l 305 -68 l 271 0 z "},"†":{"ha":688,"x_min":48,"x_max":640,"o":"m 330 693 q 293 814 324 759 q 254 901 254 882 q 279 955 254 935 q 344 975 303 975 q 408 956 382 975 q 433 907 433 937 q 396 814 433 886 q 359 693 365 757 q 479 730 424 699 q 566 768 547 768 q 620 744 600 768 q 640 679 640 720 q 622 615 640 640 q 572 589 603 589 q 480 627 551 589 q 359 665 422 658 q 433 477 364 546 q 357 -183 361 165 l 332 -183 q 254 477 328 165 q 330 665 323 546 q 209 628 264 659 q 121 589 140 589 q 68 614 88 589 q 48 679 48 638 q 67 743 48 718 q 115 768 85 768 q 208 730 137 768 q 330 693 266 699 z "},"‡":{"ha":688,"x_min":47,"x_max":640,"o":"m 358 126 q 479 165 422 134 q 572 202 550 202 q 621 177 602 202 q 640 113 640 151 q 619 47 640 72 q 566 23 599 23 q 478 62 547 23 q 358 98 423 93 q 395 -23 364 35 q 433 -116 433 -94 q 407 -164 433 -146 q 343 -183 382 -183 q 278 -163 302 -183 q 254 -110 254 -143 q 292 -22 254 -91 q 329 98 323 33 q 208 61 265 92 q 115 23 136 23 q 66 48 85 23 q 47 113 47 74 q 67 178 47 153 q 121 202 87 202 q 208 163 140 202 q 329 126 264 133 q 254 396 323 279 q 329 665 323 512 q 208 628 264 659 q 121 589 140 589 q 67 614 87 589 q 47 679 47 638 q 66 743 47 718 q 115 768 85 768 q 208 730 136 768 q 329 693 265 699 q 292 814 323 759 q 254 901 254 882 q 278 955 254 935 q 343 975 302 975 q 407 956 382 975 q 433 907 433 937 q 395 814 433 886 q 358 693 364 757 q 478 730 423 699 q 566 768 547 768 q 619 744 599 768 q 640 679 640 720 q 621 615 640 640 q 572 589 602 589 q 479 627 550 589 q 358 665 422 658 q 433 396 363 512 q 358 126 363 279 z "},"•":{"ha":694,"x_min":146,"x_max":548,"o":"m 146 487 q 205 629 146 570 q 348 687 264 687 q 489 628 431 687 q 548 487 548 570 q 489 345 548 404 q 347 286 429 286 q 205 345 263 286 q 146 487 146 404 z "},"…":{"ha":814,"x_min":0,"x_max":746,"o":"m 746 237 l 746 34 l 543 0 l 543 203 l 746 237 m 475 237 l 475 34 l 271 0 l 271 203 l 475 237 m 203 237 l 203 34 l 0 0 l 0 203 l 203 237 z "},"‹":{"ha":678,"x_min":0,"x_max":610,"o":"m 0 509 l 509 780 l 610 610 l 271 441 l 610 271 l 509 102 l 0 373 l 0 509 z "},"›":{"ha":678,"x_min":0,"x_max":610,"o":"m 610 373 l 102 102 l 0 271 l 339 441 l 0 610 l 102 780 l 610 509 l 610 373 z "},"⁄":{"ha":746,"x_min":0,"x_max":678,"o":"m 271 102 l 271 -136 l 0 -34 l 0 34 l 407 780 l 407 983 l 678 882 l 678 814 l 271 102 z "},"₣":{"ha":746,"x_min":0,"x_max":679,"o":"m 68 170 l 68 853 l 339 814 l 679 848 l 679 677 l 678 678 l 475 644 l 475 645 l 339 645 l 339 509 l 610 509 l 543 339 l 339 339 l 339 170 l 373 170 l 407 0 l 339 0 l 339 -34 l 68 -136 l 68 0 l 34 0 l 0 170 l 68 170 z "},"₤":{"ha":746,"x_min":0,"x_max":679,"o":"m 339 237 l 339 203 l 407 203 l 679 170 l 679 0 l 407 33 l 68 0 l 0 0 l 0 170 l 68 170 l 68 237 l 34 237 l 0 407 l 68 407 l 68 441 l 34 441 l 0 610 l 68 610 l 68 746 l 407 848 l 678 814 l 678 644 l 677 645 l 407 678 l 339 644 l 339 610 l 509 610 l 543 441 l 339 441 l 339 407 l 509 407 l 543 237 l 339 237 z "},"₧":{"ha":746,"x_min":0,"x_max":678,"o":"m 339 441 l 407 509 l 407 678 l 339 644 l 339 441 m 68 170 l 68 853 l 339 814 l 678 848 l 678 543 l 339 203 l 339 170 l 373 170 l 407 0 l 339 0 l 339 -34 l 68 -136 l 68 0 l 34 0 l 0 170 l 68 170 z "},"€":{"ha":746,"x_min":0,"x_max":678,"o":"m 339 237 l 339 170 l 678 204 l 678 34 l 339 0 l 68 68 l 68 237 l 0 237 l 34 407 l 68 407 l 68 441 l 0 441 l 34 610 l 68 610 l 68 780 l 339 848 l 678 814 l 678 644 l 339 678 l 339 610 l 611 610 l 576 441 l 339 441 l 339 407 l 611 407 l 576 237 l 339 237 z "},"№":{"ha":780,"x_min":0,"x_max":712,"o":"m 0 899 l 203 695 l 203 848 l 339 899 l 339 407 l 136 627 l 136 458 l 0 441 l 0 899 m 509 848 l 712 865 l 712 441 l 576 458 l 373 441 l 373 867 l 509 848 m 576 764 l 509 764 l 509 543 l 576 543 l 576 764 z "},"™":{"ha":916,"x_min":-17,"x_max":865,"o":"m 695 763 l 695 441 l 559 458 l 559 746 l 526 763 l 526 458 l 390 441 l 390 865 l 526 848 l 729 865 l 865 831 l 865 373 l 729 424 l 729 746 l 695 763 m 85 865 l 373 865 l 271 763 l 237 763 l 237 424 l 102 373 l 102 763 l -17 763 l 85 865 z "},"∂":{"ha":1119,"x_min":0,"x_max":1017,"o":"m 136 0 q 0 136 0 0 l 0 882 q 136 1017 0 1017 l 882 1017 q 1017 882 1017 1017 l 1017 136 q 882 0 1017 0 l 136 0 m 882 17 q 1000 136 1000 17 l 1000 882 q 882 1000 1000 1000 l 136 1000 q 17 882 18 1000 l 17 136 q 136 17 18 17 l 882 17 z "},"∆":{"ha":1119,"x_min":0,"x_max":1017,"o":"m 136 0 q 0 136 0 0 l 0 882 q 136 1017 0 1017 l 882 1017 q 1017 882 1017 1017 l 1017 136 q 882 0 1017 0 l 136 0 m 882 17 q 1000 136 1000 17 l 1000 882 q 882 1000 1000 1000 l 136 1000 q 17 882 18 1000 l 17 136 q 136 17 18 17 l 882 17 z "},"∏":{"ha":1119,"x_min":0,"x_max":1017,"o":"m 136 0 q 0 136 0 0 l 0 882 q 136 1017 0 1017 l 882 1017 q 1017 882 1017 1017 l 1017 136 q 882 0 1017 0 l 136 0 m 882 17 q 1000 136 1000 17 l 1000 882 q 882 1000 1000 1000 l 136 1000 q 17 882 18 1000 l 17 136 q 136 17 18 17 l 882 17 z "},"∑":{"ha":1119,"x_min":0,"x_max":1017,"o":"m 136 0 q 0 136 0 0 l 0 882 q 136 1017 0 1017 l 882 1017 q 1017 882 1017 1017 l 1017 136 q 882 0 1017 0 l 136 0 m 882 17 q 1000 136 1000 17 l 1000 882 q 882 1000 1000 1000 l 136 1000 q 17 882 18 1000 l 17 136 q 136 17 18 17 l 882 17 z "},"−":{"ha":678,"x_min":0,"x_max":611,"o":"m 0 407 l 34 576 l 611 576 l 576 407 l 0 407 z "},"√":{"ha":1119,"x_min":0,"x_max":1017,"o":"m 136 0 q 0 136 0 0 l 0 882 q 136 1017 0 1017 l 882 1017 q 1017 882 1017 1017 l 1017 136 q 882 0 1017 0 l 136 0 m 882 17 q 1000 136 1000 17 l 1000 882 q 882 1000 1000 1000 l 136 1000 q 17 882 18 1000 l 17 136 q 136 17 18 17 l 882 17 z "},"∞":{"ha":1119,"x_min":0,"x_max":1017,"o":"m 136 0 q 0 136 0 0 l 0 882 q 136 1017 0 1017 l 882 1017 q 1017 882 1017 1017 l 1017 136 q 882 0 1017 0 l 136 0 m 882 17 q 1000 136 1000 17 l 1000 882 q 882 1000 1000 1000 l 136 1000 q 17 882 18 1000 l 17 136 q 136 17 18 17 l 882 17 z "},"∫":{"ha":1119,"x_min":0,"x_max":1017,"o":"m 136 0 q 0 136 0 0 l 0 882 q 136 1017 0 1017 l 882 1017 q 1017 882 1017 1017 l 1017 136 q 882 0 1017 0 l 136 0 m 882 17 q 1000 136 1000 17 l 1000 882 q 882 1000 1000 1000 l 136 1000 q 17 882 18 1000 l 17 136 q 136 17 18 17 l 882 17 z "},"":{"ha":728,"x_min":0,"x_max":0,"o":""},"":{"ha":733,"x_min":0,"x_max":0,"o":""},"Œ":{"ha":1289,"x_min":0,"x_max":1221,"o":"m 475 848 l 271 848 l 271 203 l 474 203 l 475 848 m 475 34 l 474 34 l 0 0 l 0 1008 l 271 983 l 747 1017 l 747 978 l 1221 1012 l 1221 842 l 1220 842 l 949 808 l 949 809 l 747 809 l 747 576 l 1152 576 l 1084 407 l 746 407 l 746 203 l 949 203 l 1221 170 l 1221 0 l 949 33 l 746 19 l 746 0 l 475 34 z "},"œ":{"ha":1153,"x_min":0,"x_max":1086,"o":"m 407 645 l 271 645 l 271 203 l 407 203 l 407 645 m 407 33 l 0 0 l 0 853 l 271 814 l 679 848 l 679 814 l 1086 848 l 1086 677 l 1085 678 l 814 644 l 814 645 l 679 645 l 679 509 l 1017 509 l 949 339 l 679 339 l 679 203 l 814 203 l 1086 170 l 1086 0 l 814 33 l 679 22 l 679 0 l 407 33 z "},"‰":{"ha":1289,"x_min":0,"x_max":1221,"o":"m 338 644 l 271 678 l 271 576 l 338 576 l 338 644 m 610 271 l 543 305 l 543 203 l 610 203 l 610 271 m 882 203 l 949 203 l 949 271 l 882 305 l 882 203 m 373 13 l 373 -136 l 102 -34 l 102 34 l 271 345 l 271 407 l 0 373 l 0 848 l 338 814 l 509 835 l 509 983 l 780 882 l 780 814 l 610 517 l 610 475 l 761 460 l 949 441 l 1221 475 l 1221 0 l 882 34 l 731 15 l 543 34 l 373 13 z "}}}
